<svg width="25" height="26" viewBox="0 0 25 26" xmlns="http://www.w3.org/2000/svg">
<path d="M11.0353 24.9173L0.441413 14.0538C0.280899 13.8892 0.166934 13.7109 0.0995181 13.5189C0.0331725 13.3268 0 13.1211 0 12.9016C0 12.6822 0.0331725 12.4764 0.0995181 12.2844C0.166934 12.0924 0.280899 11.914 0.441413 11.7494L11.0353 0.885936C11.3296 0.584172 11.6972 0.426158 12.138 0.411893C12.58 0.398725 12.9615 0.556739 13.2825 0.885936C13.6035 1.1877 13.771 1.56463 13.7849 2.01673C13.7978 2.46992 13.6437 2.86112 13.3226 3.19032L5.45746 11.2557H23.3949C23.8497 11.2557 24.2311 11.4131 24.5393 11.728C24.8464 12.0441 25 12.4353 25 12.9016C25 13.368 24.8464 13.7586 24.5393 14.0736C24.2311 14.3896 23.8497 14.5476 23.3949 14.5476H5.45746L13.3226 22.613C13.6169 22.9147 13.771 23.2988 13.7849 23.7651C13.7978 24.2315 13.6437 24.6156 13.3226 24.9173C13.0284 25.2465 12.6538 25.4111 12.199 25.4111C11.7442 25.4111 11.3563 25.2465 11.0353 24.9173Z"/>
</svg>
