<svg width="25" height="25" viewBox="0 0 25 25" xmlns="http://www.w3.org/2000/svg">
<path d="M12.5 16.6663C13.3334 16.6663 14.0756 16.4189 14.7266 15.9242C15.3776 15.4294 15.8507 14.7913 16.1459 14.0101H8.85421C9.14935 14.7913 9.62244 15.4294 10.2735 15.9242C10.9245 16.4189 11.6667 16.6663 12.5 16.6663ZM9.89587 12.4997C10.3299 12.4997 10.6988 12.3478 11.0026 12.0439C11.3065 11.7401 11.4584 11.3712 11.4584 10.9372C11.4584 10.5031 11.3065 10.1342 11.0026 9.8304C10.6988 9.52658 10.3299 9.37467 9.89587 9.37467C9.46185 9.37467 9.09292 9.52658 8.7891 9.8304C8.48528 10.1342 8.33337 10.5031 8.33337 10.9372C8.33337 11.3712 8.48528 11.7401 8.7891 12.0439C9.09292 12.3478 9.46185 12.4997 9.89587 12.4997ZM15.1042 12.4997C15.5382 12.4997 15.9072 12.3478 16.211 12.0439C16.5148 11.7401 16.6667 11.3712 16.6667 10.9372C16.6667 10.5031 16.5148 10.1342 16.211 9.8304C15.9072 9.52658 15.5382 9.37467 15.1042 9.37467C14.6702 9.37467 14.3013 9.52658 13.9974 9.8304C13.6936 10.1342 13.5417 10.5031 13.5417 10.9372C13.5417 11.3712 13.6936 11.7401 13.9974 12.0439C14.3013 12.3478 14.6702 12.4997 15.1042 12.4997ZM7.94275 6.66634L10.8594 2.8903C11.0677 2.61252 11.3151 2.40853 11.6016 2.27832C11.8881 2.14811 12.1875 2.08301 12.5 2.08301C12.8125 2.08301 13.112 2.14811 13.3985 2.27832C13.6849 2.40853 13.9323 2.61252 14.1407 2.8903L17.0573 6.66634L21.4844 8.15072C21.9358 8.2896 22.2917 8.54568 22.5521 8.91895C22.8125 9.29221 22.9427 9.70454 22.9427 10.1559C22.9427 10.3643 22.9124 10.5726 22.8516 10.7809C22.7908 10.9893 22.691 11.1889 22.5521 11.3799L19.6875 15.4424L19.7917 19.7132C19.8091 20.3209 19.6094 20.833 19.1927 21.2497C18.7761 21.6663 18.29 21.8747 17.7344 21.8747C17.6997 21.8747 17.5087 21.8486 17.1615 21.7965L12.5 20.4945L7.83858 21.7965C7.75178 21.8313 7.65629 21.853 7.55212 21.8617C7.44796 21.8703 7.35247 21.8747 7.26567 21.8747C6.71011 21.8747 6.224 21.6663 5.80733 21.2497C5.39067 20.833 5.19101 20.3209 5.20837 19.7132L5.31254 15.4163L2.474 11.3799C2.33511 11.1889 2.23528 10.9893 2.17452 10.7809C2.11376 10.5726 2.08337 10.3643 2.08337 10.1559C2.08337 9.7219 2.20924 9.31825 2.46098 8.94499C2.71271 8.57172 3.06428 8.30697 3.51567 8.15072L7.94275 6.66634Z"/>
</svg>
