<svg width="21" height="21" viewBox="0 0 21 21" fill="none" xmlns="http://www.w3.org/2000/svg">
<path d="M10.4895 0.0833368C4.7395 0.0833368 0.083252 4.75 0.083252 10.5C0.083252 16.25 4.7395 20.9167 10.4895 20.9167C16.2499 20.9167 20.9166 16.25 20.9166 10.5C20.9166 4.75 16.2499 0.0833368 10.4895 0.0833368ZM17.7083 6.33334H14.6353C14.302 5.03125 13.8228 3.78125 13.1978 2.625C15.1145 3.28125 16.7083 4.61459 17.7083 6.33334ZM10.4999 2.20834C11.3645 3.45834 12.0416 4.84375 12.4895 6.33334H8.51034C8.95825 4.84375 9.63534 3.45834 10.4999 2.20834ZM2.43742 12.5833C2.27075 11.9167 2.16659 11.2188 2.16659 10.5C2.16659 9.78125 2.27075 9.08334 2.43742 8.41667H5.95825C5.87492 9.10417 5.81242 9.79167 5.81242 10.5C5.81242 11.2083 5.87492 11.8958 5.95825 12.5833H2.43742ZM3.29159 14.6667H6.3645C6.69784 15.9688 7.177 17.2188 7.802 18.375C5.88534 17.7188 4.29159 16.3958 3.29159 14.6667ZM6.3645 6.33334H3.29159C4.29159 4.60417 5.88534 3.28125 7.802 2.625C7.177 3.78125 6.69784 5.03125 6.3645 6.33334ZM10.4999 18.7917C9.63534 17.5417 8.95825 16.1563 8.51034 14.6667H12.4895C12.0416 16.1563 11.3645 17.5417 10.4999 18.7917ZM12.9374 12.5833H8.06242C7.96867 11.8958 7.89575 11.2083 7.89575 10.5C7.89575 9.79167 7.96867 9.09375 8.06242 8.41667H12.9374C13.0312 9.09375 13.1041 9.79167 13.1041 10.5C13.1041 11.2083 13.0312 11.8958 12.9374 12.5833ZM13.1978 18.375C13.8228 17.2188 14.302 15.9688 14.6353 14.6667H17.7083C16.7083 16.3854 15.1145 17.7188 13.1978 18.375ZM15.0416 12.5833C15.1249 11.8958 15.1874 11.2083 15.1874 10.5C15.1874 9.79167 15.1249 9.10417 15.0416 8.41667H18.5624C18.7291 9.08334 18.8333 9.78125 18.8333 10.5C18.8333 11.2188 18.7291 11.9167 18.5624 12.5833H15.0416Z" fill="#131313"/>
</svg>
