<svg width="21" height="21" viewBox="0 0 21 21" fill="none" xmlns="http://www.w3.org/2000/svg">
<path d="M10.4896 0.083333C4.73962 0.083333 0.083374 4.75 0.083374 10.5C0.083374 16.25 4.73962 20.9167 10.4896 20.9167C16.25 20.9167 20.9167 16.25 20.9167 10.5C20.9167 4.75 16.25 0.083333 10.4896 0.083333ZM17.7084 6.33333H14.6355C14.3021 5.03125 13.823 3.78125 13.198 2.625C15.1146 3.28125 16.7084 4.61458 17.7084 6.33333ZM10.5 2.20833C11.3646 3.45833 12.0417 4.84375 12.4896 6.33333H8.51046C8.95837 4.84375 9.63546 3.45833 10.5 2.20833ZM2.43754 12.5833C2.27087 11.9167 2.16671 11.2188 2.16671 10.5C2.16671 9.78125 2.27087 9.08333 2.43754 8.41667H5.95837C5.87504 9.10417 5.81254 9.79167 5.81254 10.5C5.81254 11.2083 5.87504 11.8958 5.95837 12.5833H2.43754ZM3.29171 14.6667H6.36462C6.69796 15.9688 7.17712 17.2188 7.80212 18.375C5.88546 17.7188 4.29171 16.3958 3.29171 14.6667ZM6.36462 6.33333H3.29171C4.29171 4.60417 5.88546 3.28125 7.80212 2.625C7.17712 3.78125 6.69796 5.03125 6.36462 6.33333ZM10.5 18.7917C9.63546 17.5417 8.95837 16.1563 8.51046 14.6667H12.4896C12.0417 16.1563 11.3646 17.5417 10.5 18.7917ZM12.9375 12.5833H8.06254C7.96879 11.8958 7.89587 11.2083 7.89587 10.5C7.89587 9.79167 7.96879 9.09375 8.06254 8.41667H12.9375C13.0313 9.09375 13.1042 9.79167 13.1042 10.5C13.1042 11.2083 13.0313 11.8958 12.9375 12.5833ZM13.198 18.375C13.823 17.2188 14.3021 15.9688 14.6355 14.6667H17.7084C16.7084 16.3854 15.1146 17.7188 13.198 18.375ZM15.0417 12.5833C15.125 11.8958 15.1875 11.2083 15.1875 10.5C15.1875 9.79167 15.125 9.10417 15.0417 8.41667H18.5625C18.7292 9.08333 18.8334 9.78125 18.8334 10.5C18.8334 11.2188 18.7292 11.9167 18.5625 12.5833H15.0417Z" fill="white"/>
</svg>
