<svg width="30" height="30" viewBox="0 0 96 96" xmlns="http://www.w3.org/2000/svg">
<g clip-path="url(#clip0_475_8)">
<path d="M44.28 51.4C47.36 45.84 53.28 42.56 56.72 37.64C60.36 32.48 58.32 22.84 48 22.84C41.24 22.84 37.92 27.96 36.52 32.2L26.16 27.84C29 19.32 36.72 12 47.96 12C57.36 12 63.8 16.28 67.08 21.64C69.88 26.24 71.52 34.84 67.2 41.24C62.4 48.32 57.8 50.48 55.32 55.04C54.32 56.88 53.92 58.08 53.92 64H42.36C42.32 60.88 41.84 55.8 44.28 51.4ZM56 80C56 84.4 52.4 88 48 88C43.6 88 40 84.4 40 80C40 75.6 43.6 72 48 72C52.4 72 56 75.6 56 80Z"/>
</g>
<defs>
<clipPath id="clip0_475_8">
<rect width="96" height="96" fill="white"/>
</clipPath>
</defs>
</svg>
