<svg width="23" height="23" viewBox="0 0 23 23" fill="none" xmlns="http://www.w3.org/2000/svg">
<path d="M10.4583 3.16667V1.08333C10.4583 0.510417 10.927 0.041667 11.5 0.041667C12.0729 0.041667 12.5416 0.510417 12.5416 1.08333V3.16667C12.5416 3.73958 12.0729 4.20833 11.5 4.20833C10.927 4.20833 10.4583 3.73958 10.4583 3.16667ZM18.125 6.34375L19.5937 4.86458C20 4.45833 20 3.80208 19.5937 3.39583C19.1875 2.98958 18.5312 2.98958 18.125 3.39583L16.6562 4.875C16.25 5.28125 16.25 5.9375 16.6562 6.34375C17.0625 6.75 17.7187 6.75 18.125 6.34375ZM21.9166 10.4583H19.8333C19.2604 10.4583 18.7916 10.9271 18.7916 11.5C18.7916 12.0729 19.2604 12.5417 19.8333 12.5417H21.9166C22.4895 12.5417 22.9583 12.0729 22.9583 11.5C22.9583 10.9271 22.4895 10.4583 21.9166 10.4583ZM11.5 18.7917C10.927 18.7917 10.4583 19.2604 10.4583 19.8333V21.9167C10.4583 22.4896 10.927 22.9583 11.5 22.9583C12.0729 22.9583 12.5416 22.4896 12.5416 21.9167V19.8333C12.5416 19.2604 12.0729 18.7917 11.5 18.7917ZM4.87496 6.34375L3.39579 4.875C2.98954 4.46875 2.98954 3.80208 3.39579 3.40625C3.80204 3.01042 4.46871 3 4.86454 3.40625L6.33329 4.875C6.73954 5.28125 6.73954 5.94792 6.33329 6.34375C5.92704 6.73958 5.27079 6.75 4.87496 6.34375ZM16.6562 16.6562C16.25 17.0625 16.25 17.7292 16.6562 18.125L18.125 19.5937C18.5312 20 19.1979 20 19.5937 19.5937C20 19.1875 20 18.5208 19.5937 18.125L18.125 16.6562C17.7291 16.25 17.0625 16.25 16.6562 16.6562ZM1.08329 12.5417H3.16663C3.73954 12.5417 4.20829 12.0729 4.20829 11.5C4.20829 10.9271 3.73954 10.4583 3.16663 10.4583H1.08329C0.510376 10.4583 0.041626 10.9271 0.041626 11.5C0.041626 12.0729 0.510376 12.5417 1.08329 12.5417ZM4.87496 19.6042L6.34371 18.1354C6.74996 17.7292 6.74996 17.0625 6.34371 16.6667C5.93746 16.2708 5.27079 16.2604 4.87496 16.6667L3.40621 18.1354C2.99996 18.5417 2.99996 19.2083 3.40621 19.6042C3.80204 20.0104 4.46871 20.0104 4.87496 19.6042ZM11.5 5.25C8.05204 5.25 5.24996 8.05208 5.24996 11.5C5.24996 14.9479 8.05204 17.75 11.5 17.75C14.9479 17.75 17.75 14.9479 17.75 11.5C17.75 8.05208 14.9479 5.25 11.5 5.25Z" fill="white"/>
</svg>
